<?xml version="1.0" encoding="UTF-8" standalone="no"?>
<!DOCTYPE svg PUBLIC "-//W3C//DTD SVG 1.1//EN"
 "http://www.w3.org/Graphics/SVG/1.1/DTD/svg11.dtd">
<!-- Generated by graphviz version 7.1.0 (20230121.1956)
 -->
<!-- Title: Graph Pages: 1 -->
<svg width="125pt" height="392pt"
 viewBox="0.00 0.00 125.30 392.00" xmlns="http://www.w3.org/2000/svg" xmlns:xlink="http://www.w3.org/1999/xlink">
<g id="graph0" class="graph" transform="scale(1 1) rotate(0) translate(4 388)">
<title>Graph</title>
<polygon fill="white" stroke="none" points="-4,4 -4,-388 121.3,-388 121.3,4 -4,4"/>
<!-- 0 -->
<g id="node1" class="node">
<title>0</title>
<ellipse fill="none" stroke="black" cx="56.3" cy="-366" rx="27" ry="18"/>
<text text-anchor="middle" x="56.3" y="-362.3" font-family="Times,serif" font-size="14.00">0</text>
</g>
<!-- 1 -->
<g id="node2" class="node">
<title>1</title>
<ellipse fill="none" stroke="black" cx="38.3" cy="-279" rx="27" ry="18"/>
<text text-anchor="middle" x="38.3" y="-275.3" font-family="Times,serif" font-size="14.00">1</text>
</g>
<!-- 0&#45;&gt;1 -->
<g id="edge1" class="edge">
<title>0&#45;&gt;1</title>
<path fill="none" stroke="red" d="M33.03,-356.25C21.59,-350.62 8.86,-342.07 2.3,-330 -3.37,-319.57 2.65,-308.78 11.28,-299.91"/>
<polygon fill="red" stroke="red" points="13.46,-302.66 18.56,-293.37 8.78,-297.45 13.46,-302.66"/>
<text text-anchor="middle" x="9.3" y="-318.8" font-family="Times,serif" font-size="14.00">10</text>
</g>
<!-- 0&#45;&gt;1 -->
<g id="edge5" class="edge">
<title>0&#45;&gt;1</title>
<path fill="none" stroke="black" d="M46.64,-348.82C43.7,-343.07 40.85,-336.44 39.3,-330 37.66,-323.19 36.96,-315.7 36.76,-308.64"/>
<polygon fill="black" stroke="black" points="40.26,-308.89 36.82,-298.87 33.26,-308.85 40.26,-308.89"/>
<text text-anchor="middle" x="46.3" y="-318.8" font-family="Times,serif" font-size="14.00">10</text>
</g>
<!-- 0&#45;&gt;1 -->
<g id="edge6" class="edge">
<title>0&#45;&gt;1</title>
<path fill="none" stroke="black" d="M56.72,-347.66C56.59,-337.94 55.83,-325.66 53.3,-315 52.67,-312.34 51.85,-309.63 50.93,-306.95"/>
<polygon fill="black" stroke="black" points="54.21,-305.73 47.25,-297.74 47.71,-308.33 54.21,-305.73"/>
<text text-anchor="middle" x="62.3" y="-318.8" font-family="Times,serif" font-size="14.00">15</text>
</g>
<!-- 2 -->
<g id="node3" class="node">
<title>2</title>
<ellipse fill="none" stroke="black" cx="75.3" cy="-192" rx="27" ry="18"/>
<text text-anchor="middle" x="75.3" y="-188.3" font-family="Times,serif" font-size="14.00">2</text>
</g>
<!-- 0&#45;&gt;2 -->
<g id="edge7" class="edge">
<title>0&#45;&gt;2</title>
<path fill="none" stroke="black" d="M65.91,-348.8C68.84,-343.06 71.71,-336.43 73.3,-330 82.39,-293.4 80.99,-249.59 78.6,-221.54"/>
<polygon fill="black" stroke="black" points="82.1,-221.32 77.66,-211.7 75.13,-221.99 82.1,-221.32"/>
<text text-anchor="middle" x="87.3" y="-275.3" font-family="Times,serif" font-size="14.00">44</text>
</g>
<!-- 1&#45;&gt;2 -->
<g id="edge2" class="edge">
<title>1&#45;&gt;2</title>
<path fill="none" stroke="red" d="M35.48,-260.65C34.62,-250.69 34.87,-238.19 39.3,-228 41.63,-222.64 45.21,-217.69 49.22,-213.3"/>
<polygon fill="red" stroke="red" points="51.37,-216.08 56.16,-206.63 46.53,-211.03 51.37,-216.08"/>
<text text-anchor="middle" x="46.3" y="-231.8" font-family="Times,serif" font-size="14.00">10</text>
</g>
<!-- 1&#45;&gt;2 -->
<g id="edge8" class="edge">
<title>1&#45;&gt;2</title>
<path fill="none" stroke="black" d="M45.61,-261.21C50.73,-249.45 57.68,-233.48 63.57,-219.96"/>
<polygon fill="black" stroke="black" points="66.62,-221.71 67.4,-211.15 60.2,-218.92 66.62,-221.71"/>
<text text-anchor="middle" x="65.3" y="-231.8" font-family="Times,serif" font-size="14.00">10</text>
</g>
<!-- 3 -->
<g id="node4" class="node">
<title>3</title>
<ellipse fill="none" stroke="black" cx="27.3" cy="-105" rx="27" ry="18"/>
<text text-anchor="middle" x="27.3" y="-101.3" font-family="Times,serif" font-size="14.00">3</text>
</g>
<!-- 2&#45;&gt;3 -->
<g id="edge3" class="edge">
<title>2&#45;&gt;3</title>
<path fill="none" stroke="red" d="M52.93,-181.41C42.53,-175.67 31.17,-167.28 25.3,-156 21.92,-149.5 20.98,-141.87 21.25,-134.54"/>
<polygon fill="red" stroke="red" points="24.72,-134.97 22.36,-124.64 17.76,-134.18 24.72,-134.97"/>
<text text-anchor="middle" x="32.3" y="-144.8" font-family="Times,serif" font-size="14.00">15</text>
</g>
<!-- 2&#45;&gt;3 -->
<g id="edge9" class="edge">
<title>2&#45;&gt;3</title>
<path fill="none" stroke="black" d="M66.05,-174.61C59.27,-162.62 49.94,-146.09 42.13,-132.27"/>
<polygon fill="black" stroke="black" points="45.24,-130.64 37.27,-123.66 39.14,-134.09 45.24,-130.64"/>
<text text-anchor="middle" x="60.3" y="-144.8" font-family="Times,serif" font-size="14.00">15</text>
</g>
<!-- 4 -->
<g id="node5" class="node">
<title>4</title>
<ellipse fill="none" stroke="black" cx="90.3" cy="-18" rx="27" ry="18"/>
<text text-anchor="middle" x="90.3" y="-14.3" font-family="Times,serif" font-size="14.00">4</text>
</g>
<!-- 2&#45;&gt;4 -->
<g id="edge4" class="edge">
<title>2&#45;&gt;4</title>
<path fill="none" stroke="red" d="M76.82,-173.56C79.41,-143.87 84.7,-83.22 87.83,-47.36"/>
<polygon fill="red" stroke="red" points="91.29,-48 88.67,-37.74 84.31,-47.4 91.29,-48"/>
<text text-anchor="middle" x="90.3" y="-101.3" font-family="Times,serif" font-size="14.00">25</text>
</g>
<!-- 2&#45;&gt;4 -->
<g id="edge11" class="edge">
<title>2&#45;&gt;4</title>
<path fill="none" stroke="black" d="M84.08,-174.54C86.94,-168.78 89.97,-162.2 92.3,-156 97.65,-141.77 99.28,-138.07 101.3,-123 105.37,-92.6 105.02,-84.31 100.3,-54 99.94,-51.66 99.47,-49.25 98.92,-46.85"/>
<polygon fill="black" stroke="black" points="102.36,-46.15 96.43,-37.36 95.59,-47.93 102.36,-46.15"/>
<text text-anchor="middle" x="110.3" y="-101.3" font-family="Times,serif" font-size="14.00">25</text>
</g>
<!-- 3&#45;&gt;4 -->
<g id="edge10" class="edge">
<title>3&#45;&gt;4</title>
<path fill="none" stroke="black" d="M38.08,-88.05C44.87,-78.14 53.92,-65.2 62.3,-54 65.01,-50.39 67.92,-46.62 70.81,-42.95"/>
<polygon fill="black" stroke="black" points="73.37,-45.35 76.88,-35.35 67.9,-40.98 73.37,-45.35"/>
<text text-anchor="middle" x="69.3" y="-57.8" font-family="Times,serif" font-size="14.00">70</text>
</g>
</g>
</svg>
